<?xml version="1.0" encoding="utf-8"?>
<!-- Generator: Adobe Illustrator 24.1.2, SVG Export Plug-In . SVG Version: 6.00 Build 0)  -->
<svg version="1.1" id="Шар_1" xmlns="http://www.w3.org/2000/svg" xmlns:xlink="http://www.w3.org/1999/xlink" x="0px" y="0px"
	 viewBox="0 0 120 120" style="enable-background:new 0 0 120 120;" xml:space="preserve">
<style type="text/css">
	.st0{fill:#FCFF4A;}
	.st1{clip-path:url(#SVGID_2_);}
</style>
<path class="st0" d="M10,0h100c5.5,0,10,4.5,10,10v100c0,5.5-4.5,10-10,10H10c-5.5,0-10-4.5-10-10V10C0,4.5,4.5,0,10,0z"/>
<g>
	<defs>
		<rect id="SVGID_1_" x="8" y="8" width="104" height="104"/>
	</defs>
	<clipPath id="SVGID_2_">
		<use xlink:href="#SVGID_1_"  style="overflow:visible;"/>
	</clipPath>
	<g class="st1">
		<path d="M107.5,31.2L61.6,8.4c-1-0.5-2.2-0.5-3.1,0L12.5,31.2c-1.7,0.9-2.5,3-1.6,4.7c0.9,1.7,3,2.5,4.7,1.6l0.7-0.4V105
			c-1.6,0.4-2.7,1.8-2.7,3.4c0,1.9,1.6,3.5,3.5,3.5h5.5c1.9,0,3.5-1.6,3.5-3.5c0-1.7-1.2-3.1-2.7-3.4V55.3h73.2V105
			c-1.6,0.4-2.7,1.8-2.7,3.4c0,1.9,1.6,3.5,3.5,3.5h5.5c1.9,0,3.5-1.6,3.5-3.5c0-1.7-1.2-3.1-2.7-3.4V37.2l0.7,0.4
			c0.5,0.3,1,0.4,1.6,0.4c1.3,0,2.5-0.7,3.2-2C109.9,34.2,109.2,32.1,107.5,31.2z M68,39.6c-1.2,2.3-3.2,4-5.6,4.6v-3
			c0-1.3-1.1-2.4-2.4-2.4c-1.3,0-2.4,1.1-2.4,2.4v3c-2.5-0.7-4.6-2.4-5.7-4.7c-1.4-3-1.1-6.5,0.8-9.2l4.3-6.2
			c0.7-0.9,1.7-1.5,2.9-1.5c0,0,0,0,0,0c1.1,0,2.2,0.6,2.9,1.5l4.5,6.3c0,0,0,0,0,0.1C69.2,33.1,69.4,36.7,68,39.6z"/>
		<path d="M84.5,76.9v-0.2c0-1.7-1.3-3.2-2.9-3.5v-1.4c0-5.3-4.3-9.7-9.7-9.7h-7.3c-0.6-1.1-1.8-1.9-3.1-1.9h-2.8
			c-1.4,0-2.5,0.8-3.1,1.9h-7.3c-5.3,0-9.7,4.3-9.7,9.7v1.4c-1.7,0.3-2.9,1.7-2.9,3.5v0.2v6.1c0,0.3,0,0.6,0.1,0.9
			c0.4,1.3,1.5,2.3,2.8,2.5v14.3c-0.5,0.6-0.8,1.4-0.8,2.3c0,1.9,1.6,3.5,3.5,3.5H42h1.4v1.2c0,1.9,1.6,3.5,3.5,3.5
			c1.9,0,3.5-1.6,3.5-3.5v-1.2h19.1v1.2c0,1.9,1.6,3.5,3.5,3.5c1.9,0,3.5-1.6,3.5-3.5v-1.2H78h0.8c1.9,0,3.5-1.6,3.5-3.5
			c0-0.9-0.3-1.7-0.8-2.3V86.5c1.4-0.2,2.4-1.2,2.8-2.5c0.1-0.3,0.1-0.6,0.1-0.9L84.5,76.9L84.5,76.9z M66.6,95.8H53.4
			c-1.3,0-2.4-1.1-2.4-2.4s1.1-2.4,2.4-2.4h13.2c1.3,0,2.4,1.1,2.4,2.4S67.9,95.8,66.6,95.8z M42.5,84c0.1-0.3,0.1-0.6,0.1-0.9v-6.1
			h34.8v6.1c0,0.3,0,0.6,0.1,0.9H42.5z"/>
	</g>
</g>
</svg>
