<svg width="120" height="120" viewBox="0 0 120 120" fill="none" xmlns="http://www.w3.org/2000/svg">
<rect width="120" height="120" rx="10" fill="#FFC85C"/>
<g clip-path="url(#clip0_714_4480)">
<path d="M107.485 31.2023L61.57 8.36898C60.5802 7.87701 59.4175 7.87701 58.4277 8.36898L12.5131 31.2023C10.768 32.07 10.0567 34.188 10.9247 35.933C11.7924 37.6779 13.911 38.389 15.6554 37.5215L16.3597 37.1713V105.037C14.7976 105.401 13.6329 106.798 13.6329 108.471C13.6329 110.42 15.2128 112 17.1618 112H22.6153C24.5641 112 26.1442 110.42 26.1442 108.471C26.1442 106.798 24.9793 105.401 23.4175 105.037V55.3039H96.5811V105.037C95.019 105.401 93.8543 106.799 93.8543 108.471C93.8543 110.42 95.4342 112 97.3832 112H102.837C104.785 112 106.366 110.42 106.366 108.471C106.366 106.798 105.201 105.401 103.639 105.037V37.1713L104.343 37.5215C104.848 37.7725 105.384 37.8914 105.911 37.8914C107.209 37.8914 108.457 37.1733 109.074 35.933C109.941 34.188 109.23 32.0698 107.485 31.2023ZM67.9534 39.5927C66.7814 41.9169 64.7603 43.549 62.3514 44.1986V41.1692C62.3514 39.87 61.2982 38.8168 59.999 38.8168C58.6999 38.8168 57.6465 39.87 57.6465 41.1694V44.2126C55.185 43.5545 53.092 41.8466 51.9553 39.4735C50.519 36.4754 50.8336 32.956 52.7741 30.276L57.0996 24.0399C57.7559 23.0935 58.8333 22.5272 59.985 22.5223C59.9899 22.5223 59.9946 22.5223 59.9993 22.5223C61.1459 22.5223 62.2214 23.0793 62.8824 24.0165L67.3447 30.3404C67.3603 30.3625 67.3753 30.3845 67.3904 30.4068C69.2209 33.1313 69.4366 36.6513 67.9534 39.5927Z" fill="black"/>
<path d="M84.4654 76.9475V76.7122C84.4654 74.9641 83.193 73.5169 81.5248 73.2364V71.8007C81.5248 66.4662 77.185 62.1264 71.8505 62.1264H64.535C63.9447 61.0028 62.7682 60.2354 61.4109 60.2354H58.5879C57.2306 60.2354 56.0539 61.0028 55.4638 62.1264H48.1481C42.8136 62.1264 38.4738 66.4662 38.4738 71.8007V73.2364C36.8054 73.5171 35.5332 74.9641 35.5332 76.7122V76.9475V83.0642C35.5332 83.3904 35.5811 83.7052 35.664 84.0052C36.0252 85.3119 37.117 86.3119 38.4738 86.54V100.797C37.9605 101.41 37.6504 102.199 37.6504 103.061C37.6504 105.01 39.2303 106.59 41.1793 106.59H42.0027H43.4145V107.766C43.4145 109.715 44.9944 111.295 46.9433 111.295C48.8921 111.295 50.4722 109.715 50.4722 107.766V106.59H69.5276V107.766C69.5276 109.715 71.1075 111.295 73.0565 111.295C75.0055 111.295 76.5854 109.715 76.5854 107.766V106.59H77.9971H78.8206C80.7693 106.59 82.3495 105.01 82.3495 103.061C82.3495 102.199 82.0395 101.41 81.526 100.797V86.54C82.8829 86.3119 83.9747 85.3119 84.3358 84.0052C84.4187 83.7052 84.4666 83.3906 84.4666 83.0642V76.9475H84.4654ZM66.5863 95.7676H53.4121C52.1127 95.7676 51.0595 94.7144 51.0595 93.415C51.0595 92.1156 52.1127 91.0624 53.4121 91.0624H66.5863C67.8855 91.0624 68.9389 92.1156 68.9389 93.415C68.9389 94.7144 67.8857 95.7676 66.5863 95.7676ZM42.4596 84.005C42.5424 83.705 42.5904 83.3904 42.5904 83.064V76.9473H77.4078V83.064C77.4078 83.3902 77.4558 83.705 77.5386 84.005H42.4596Z" fill="black"/>
</g>
<defs>
<clipPath id="clip0_714_4480">
<rect width="104" height="104" fill="white" transform="translate(8 8)"/>
</clipPath>
</defs>
</svg>
